<svg width="717" height="358" viewBox="0 0 717 358" fill="none" xmlns="http://www.w3.org/2000/svg">
<path d="M286.864 94V69.68L287.12 67.12V14.512H290.576L251.664 67.76L248.208 63.536H309.648V72.752H241.04V64.816L287.376 1.84H297.872V94H286.864ZM356.062 95.28C348.808 95.28 342.451 93.2747 336.99 89.264C331.614 85.168 327.39 79.536 324.318 72.368C321.331 65.1147 319.838 56.8373 319.838 47.536C319.838 38.2347 321.331 30.0853 324.318 23.088C327.304 16.0053 331.528 10.5013 336.99 6.576C342.451 2.56533 348.808 0.559998 356.062 0.559998C363.315 0.559998 369.63 2.56533 375.006 6.576C380.467 10.5013 384.691 16.0053 387.678 23.088C390.75 30.0853 392.286 38.2347 392.286 47.536C392.286 56.9227 390.75 65.2 387.678 72.368C384.691 79.536 380.467 85.168 375.006 89.264C369.63 93.2747 363.315 95.28 356.062 95.28ZM356.062 86.064C361.267 86.064 365.704 84.528 369.374 81.456C373.043 78.2987 375.859 73.8613 377.822 68.144C379.784 62.3413 380.766 55.4293 380.766 47.408C380.766 39.472 379.784 32.688 377.822 27.056C375.944 21.424 373.171 17.1573 369.502 14.256C365.832 11.2693 361.352 9.77599 356.062 9.77599C350.771 9.77599 346.291 11.2693 342.622 14.256C338.952 17.2427 336.136 21.552 334.174 27.184C332.296 32.7307 331.358 39.472 331.358 47.408C331.358 55.4293 332.339 62.3413 334.302 68.144C336.264 73.9467 339.08 78.384 342.75 81.456C346.419 84.528 350.856 86.064 356.062 86.064ZM447.739 94V69.68L447.995 67.12V14.512H451.451L412.539 67.76L409.083 63.536H470.523V72.752H401.915V64.816L448.251 1.84H458.747V94H447.739ZM26.0245 233.08C17.3205 225.144 10.8778 216.44 6.6965 206.968C2.6005 197.496 0.552501 187.853 0.552501 178.04C0.552501 168.397 2.64317 158.84 6.8245 149.368C11.0058 139.811 17.4058 131.021 26.0245 123H35.8805C27.2618 131.021 20.7765 139.64 16.4245 148.856C12.1578 157.987 10.0245 167.715 10.0245 178.04C10.0245 188.451 12.2432 198.264 16.6805 207.48C21.1178 216.611 27.5178 225.144 35.8805 233.08H26.0245ZM66.3995 233.08C57.6955 225.144 51.2528 216.44 47.0715 206.968C42.9755 197.496 40.9275 187.853 40.9275 178.04C40.9275 168.397 43.0182 158.84 47.1995 149.368C51.3808 139.811 57.7808 131.021 66.3995 123H76.2555C67.6368 131.021 61.1515 139.64 56.7995 148.856C52.5328 157.987 50.3995 167.715 50.3995 178.04C50.3995 188.451 52.6182 198.264 57.0555 207.48C61.4928 216.611 67.8928 225.144 76.2555 233.08H66.3995ZM93.6955 219V126.84H130.304C136.874 126.84 142.464 127.907 147.072 130.04C151.68 132.173 155.178 135.245 157.568 139.256C160.042 143.267 161.28 148.088 161.28 153.72C161.28 159.352 160.042 164.216 157.568 168.312C155.178 172.323 151.68 175.437 147.072 177.656C142.464 179.875 136.874 180.984 130.304 180.984H101.376V171.768H129.92C136.746 171.768 141.909 170.232 145.408 167.16C148.992 164.003 150.784 159.523 150.784 153.72C150.784 147.917 149.034 143.523 145.536 140.536C142.037 137.549 136.832 136.056 129.92 136.056H104.192V219H93.6955ZM161.171 219L196.755 126.84H205.971L171.283 219H161.171ZM234.387 219L199.699 126.84H209.555L245.139 219H234.387ZM178.835 181.752H226.963V190.968H178.835V181.752ZM297.168 220.28C287.781 220.28 279.632 218.36 272.72 214.52C265.808 210.68 260.474 205.304 256.72 198.392C252.965 191.395 251.088 183.16 251.088 173.688C251.088 164.216 252.922 155.896 256.592 148.728C260.346 141.475 265.509 135.8 272.08 131.704C278.736 127.608 286.373 125.56 294.992 125.56C301.733 125.56 307.834 126.84 313.296 129.4C318.842 131.96 323.365 135.501 326.864 140.024C330.448 144.547 332.624 149.795 333.392 155.768H322.896C322.042 149.453 319.098 144.419 314.064 140.664C309.114 136.909 302.885 135.032 295.376 135.032C288.634 135.032 282.746 136.653 277.712 139.896C272.677 143.053 268.752 147.491 265.936 153.208C263.205 158.925 261.84 165.667 261.84 173.432C261.84 181.197 263.248 187.896 266.064 193.528C268.965 199.075 273.104 203.341 278.479 206.328C283.941 209.315 290.469 210.808 298.064 210.808C303.269 210.808 307.92 210.083 312.016 208.632C316.112 207.096 319.824 204.749 323.152 201.592L333.648 205.432C328.954 210.381 323.536 214.093 317.392 216.568C311.333 219.043 304.592 220.28 297.168 220.28ZM323.152 205.432V175.608L327.12 179.576H297.936V170.36H333.648V205.432H323.152ZM353.571 219V126.84H364.067V219H353.571ZM358.947 219V209.784H415.267V219H358.947ZM358.947 175.608V166.392H410.659V175.608H358.947ZM358.947 136.056V126.84H414.243V136.056H358.947ZM460.821 219V126.84H471.701L524.565 204.408L523.029 204.664V126.84H533.013V219H522.132L469.269 141.432L470.805 141.176V219H460.821ZM594.367 220.28C587.967 220.28 582.079 219.128 576.703 216.824C571.412 214.435 566.804 211.107 562.878 206.84C558.953 202.488 555.881 197.411 553.663 191.608C551.529 185.805 550.463 179.448 550.463 172.536C550.463 163.405 552.34 155.299 556.095 148.216C559.849 141.133 565.012 135.587 571.583 131.576C578.239 127.565 585.791 125.56 594.239 125.56C602.857 125.56 610.452 127.565 617.023 131.576C623.679 135.587 628.884 141.133 632.639 148.216C636.393 155.299 638.271 163.448 638.271 172.664C638.271 179.576 637.161 185.933 634.943 191.736C632.809 197.539 629.78 202.573 625.855 206.84C621.929 211.107 617.279 214.435 611.903 216.824C606.527 219.128 600.681 220.28 594.367 220.28ZM594.239 210.808C600.809 210.808 606.569 209.187 611.519 205.944C616.553 202.616 620.479 198.051 623.295 192.248C626.111 186.445 627.519 179.832 627.519 172.408C627.519 165.069 626.111 158.584 623.295 152.952C620.564 147.32 616.681 142.925 611.646 139.768C606.697 136.611 600.895 135.032 594.239 135.032C587.583 135.032 581.78 136.611 576.831 139.768C571.881 142.925 568.041 147.32 565.311 152.952C562.58 158.499 561.215 164.984 561.215 172.408C561.215 179.917 562.58 186.573 565.311 192.376C568.127 198.093 572.009 202.616 576.958 205.944C581.908 209.187 587.668 210.808 594.239 210.808ZM673.912 219V136.056H642.296V126.84H716.024V136.056H684.408V219H673.912ZM98.008 344V251.84H108.504V344H98.008ZM103.384 304.448V295.232H153.048V304.448H103.384ZM103.384 261.056V251.84H156.632V261.056H103.384ZM210.429 345.28C204.029 345.28 198.141 344.128 192.765 341.824C187.474 339.435 182.866 336.107 178.941 331.84C175.016 327.488 171.944 322.411 169.725 316.608C167.592 310.805 166.525 304.448 166.525 297.536C166.525 288.405 168.402 280.299 172.157 273.216C175.912 266.133 181.074 260.587 187.645 256.576C194.301 252.565 201.853 250.56 210.301 250.56C218.92 250.56 226.514 252.565 233.085 256.576C239.741 260.587 244.946 266.133 248.701 273.216C252.456 280.299 254.333 288.448 254.333 297.664C254.333 304.576 253.224 310.933 251.005 316.736C248.872 322.539 245.842 327.573 241.917 331.84C237.992 336.107 233.341 339.435 227.965 341.824C222.589 344.128 216.744 345.28 210.429 345.28ZM210.301 335.808C216.872 335.808 222.632 334.187 227.581 330.944C232.616 327.616 236.541 323.051 239.357 317.248C242.173 311.445 243.581 304.832 243.581 297.408C243.581 290.069 242.173 283.584 239.357 277.952C236.626 272.32 232.744 267.925 227.709 264.768C222.76 261.611 216.957 260.032 210.301 260.032C203.645 260.032 197.842 261.611 192.893 264.768C187.944 267.925 184.104 272.32 181.373 277.952C178.642 283.499 177.277 289.984 177.277 297.408C177.277 304.917 178.642 311.573 181.373 317.376C184.189 323.093 188.072 327.616 193.021 330.944C197.97 334.187 203.73 335.808 210.301 335.808ZM306.19 345.28C295.097 345.28 286.435 341.909 280.206 335.168C274.062 328.341 270.99 318.827 270.99 306.624V251.84H281.486V307.136C281.486 316.352 283.619 323.435 287.886 328.384C292.153 333.333 298.254 335.808 306.19 335.808C314.297 335.808 320.483 333.376 324.75 328.512C329.017 323.563 331.15 316.437 331.15 307.136V251.84H341.646V306.752C341.646 318.869 338.531 328.341 332.302 335.168C326.073 341.909 317.369 345.28 306.19 345.28ZM362.883 344V251.84H373.763L426.627 329.408L425.091 329.664V251.84H435.075V344H424.195L371.331 266.432L372.867 266.176V344H362.883ZM463.405 344V334.784H488.109C495.789 334.784 502.402 333.248 507.949 330.176C513.496 327.019 517.762 322.624 520.749 316.992C523.736 311.36 525.229 304.832 525.229 297.408C525.229 290.069 523.736 283.669 520.749 278.208C517.762 272.747 513.496 268.523 507.949 265.536C502.488 262.549 495.874 261.056 488.109 261.056H463.405V251.84H488.109C497.752 251.84 506.157 253.76 513.325 257.6C520.493 261.355 526.04 266.688 529.965 273.6C533.976 280.427 535.981 288.448 535.981 297.664C535.981 306.88 533.976 314.987 529.965 321.984C525.954 328.896 520.365 334.315 513.197 338.24C506.114 342.08 497.794 344 488.237 344H463.405ZM457.133 344V251.84H467.629V344H457.133ZM547.756 247.488C556.46 255.424 562.86 264.128 566.956 273.6C571.137 283.072 573.228 292.715 573.228 302.528C573.228 312.171 571.137 321.771 566.956 331.328C562.775 340.8 556.375 349.547 547.756 357.568H537.9C546.519 349.547 552.961 340.971 557.228 331.84C561.58 322.624 563.756 312.853 563.756 302.528C563.756 292.117 561.537 282.347 557.1 273.216C552.663 264 546.263 255.424 537.9 247.488H547.756ZM588.256 247.488C596.96 255.424 603.36 264.128 607.456 273.6C611.637 283.072 613.728 292.715 613.728 302.528C613.728 312.171 611.637 321.771 607.456 331.328C603.275 340.8 596.875 349.547 588.256 357.568H578.4C587.019 349.547 593.461 340.971 597.728 331.84C602.08 322.624 604.256 312.853 604.256 302.528C604.256 292.117 602.037 282.347 597.6 273.216C593.163 264 586.763 255.424 578.4 247.488H588.256Z" fill="white"/>
</svg>
