<svg width="277" height="263" viewBox="0 0 277 263" fill="none" xmlns="http://www.w3.org/2000/svg">
<path d="M217.439 39.0461L120.437 73.423L53.3272 48.6119L33 76.8607L43.1636 189.108L74.1027 261.748L145 241L217.439 235.391L264.222 73.423L217.439 39.0461Z" fill="#B73D24" stroke="#B73D24"/>
<path d="M138.729 1L119 76.3301L156.815 2.64411L138.729 1Z" fill="#B73D24" stroke="#B73D24"/>
<path d="M64.9271 80.09C64.9271 80.09 73.8371 81.89 80.7671 80.09V81.8C76.4471 81.89 72.5771 84.59 68.8871 89.9L56.4671 108.17C56.1071 108.62 55.7471 109.25 55.4771 110.06C55.2971 110.51 55.2971 133.37 55.2971 133.37C55.2971 138.68 57.9071 141.29 63.0371 141.2V143C63.0371 143 51.4271 140.3 36.3971 143V141.2C41.6171 141.38 44.2271 138.77 44.2271 133.37V132.92V119.15C44.0471 117.08 43.8671 115.46 43.5071 114.47C43.3271 113.66 42.3371 111.68 40.4471 108.71L28.8371 89.72C25.6871 84.5 22.2671 81.8 18.7571 81.8V80.09C18.7571 80.09 28.3871 83.06 44.5871 80.09V81.8C39.4571 81.89 38.5571 84.59 41.9771 89.9L53.5871 108.26L66.5471 89.81C70.2371 84.5 69.6971 81.89 64.9271 81.8V80.09ZM111.267 104.66C115.047 108.8 117.027 114.2 117.297 120.95C117.297 127.43 115.047 132.92 110.727 137.33C106.407 141.83 101.277 144.08 95.2473 144.08C89.3073 144.08 84.2673 141.92 80.1273 137.6C75.9873 133.37 74.0073 128.06 74.0073 121.76C74.0073 115.28 75.9873 109.79 80.1273 105.29C84.2673 100.7 89.5773 98.45 96.0573 98.45C102.447 98.54 107.487 100.61 111.267 104.66ZM103.077 135.89C105.147 131.84 106.227 126.8 106.227 120.95C106.227 114.83 105.327 109.97 103.527 106.19C101.817 102.5 99.2973 100.25 96.0573 100.25C92.9973 100.25 90.3873 102.68 88.3173 106.82C86.3373 110.87 85.3473 115.82 85.3473 121.67C85.3473 127.34 86.3373 132.11 88.3173 136.16C90.2973 140.03 92.7273 142.55 95.6073 142.55C98.5773 142.55 101.097 139.94 103.077 135.89ZM171.714 109.97C171.714 105.02 172.524 102.5 165.954 102.5V102.05C165.954 102.05 171.084 98.99 175.494 98.72C178.914 98.54 181.164 98.99 181.974 102.86C181.974 102.86 179.004 106.19 176.844 109.61C174.324 113.57 171.714 118.43 171.714 118.43V109.97ZM182.154 132.65C182.154 138.32 184.224 141.2 188.094 141.38V142.91C188.094 142.91 178.554 139.85 165.774 142.91V141.47C166.404 141.38 166.944 141.29 167.484 141.11C167.574 141.11 167.664 141.02 167.844 141.02C168.384 140.84 168.834 140.48 169.284 140.12C169.284 140.12 169.374 140.12 169.374 140.03C170.274 139.31 170.904 138.14 171.264 136.7C171.264 136.52 171.354 136.34 171.354 136.16C171.624 135.08 171.714 134.09 171.714 132.65V131.66C173.604 126.89 176.844 119.96 176.844 119.96C179.364 114.38 182.154 110.78 182.154 110.78V116V132.65ZM209.154 132.56C209.154 138.14 211.134 141.11 215.094 141.29V142.82C215.094 142.82 205.554 139.67 192.774 142.82V141.29C193.404 141.29 193.944 141.2 194.484 141.02C194.574 141.02 194.664 140.93 194.754 140.84C195.384 140.66 195.834 140.39 196.284 140.03C197.184 139.13 197.904 138.14 198.264 136.61C198.264 136.52 198.354 136.34 198.354 136.25C198.624 135.17 198.714 134 198.714 132.56L198.894 112.04C198.984 108.62 197.274 103.4 193.764 102.05C190.074 100.61 185.844 104.12 183.594 106.64C180.264 110.15 177.924 114.47 175.764 118.88C173.604 123.29 171.804 127.88 169.734 132.47C168.744 134.72 167.664 137.06 166.224 139.22C164.154 142.1 161.094 143.99 157.584 144.26C154.524 144.53 150.744 143.63 149.214 140.75C148.944 140.21 148.764 139.67 148.584 139.22C148.494 139.04 148.224 138.32 148.314 138.23C144.984 142.1 140.754 143.99 135.624 143.99C131.304 144.17 127.794 142.91 125.184 140.3C122.664 137.78 121.404 134.18 121.404 129.41L121.314 110.15C121.314 105.29 122.034 102.77 115.554 102.77V102.23C115.554 102.23 131.574 92.69 131.574 106.01C131.664 105.92 131.574 125.18 131.574 132.02C131.844 134.09 132.564 135.98 133.824 137.51C135.354 139.49 137.424 140.39 140.034 140.39C142.374 140.39 144.354 139.4 145.974 137.51C147.504 135.62 148.314 133.37 148.314 130.85L148.404 110.15C148.404 105.29 149.124 102.77 142.644 102.77V102.23C142.644 102.23 158.664 92.69 158.664 106.01C158.664 105.92 158.664 133.73 158.664 133.73C158.664 137.51 158.304 142.01 161.004 140.75C162.264 140.3 163.614 138.86 164.244 137.87C165.504 135.89 166.584 133.73 167.664 131.48C169.734 127.07 171.624 122.39 173.784 117.89C176.034 113.39 178.554 108.98 182.064 105.2C187.824 99.08 198.624 95.75 205.284 102.5C207.804 105.02 209.064 108.71 209.064 113.48L209.154 132.56ZM240.709 137.33C250.519 137.33 258.349 140.75 258.349 149.21C258.349 156.95 249.799 165.86 234.499 165.86C221.449 165.86 214.879 159.47 214.879 153.71C214.879 149.03 219.109 144.89 227.659 144.8C221.089 143.72 216.859 140.48 216.859 135.89C216.859 132.47 222.169 127.43 224.959 127.52C224.329 127.16 220.189 124.82 217.849 121.31C216.409 119.24 215.779 116.9 215.779 114.38C215.779 109.97 217.579 106.19 221.269 103.22C224.869 100.25 229.459 98.72 235.129 98.63C235.129 98.63 236.389 98.72 237.289 98.81C237.289 98.81 237.559 98.81 237.649 98.81C237.829 88.73 242.959 84.68 247.549 84.23C251.599 83.96 254.299 86.3 254.569 89.27C254.839 92.24 252.679 95.84 247.189 98C247.639 96.38 247.819 94.58 247.729 93.05C247.549 90.71 246.559 89.09 244.309 89.27C242.689 89.36 239.629 91.07 239.539 99.08C239.629 99.08 241.789 99.62 241.969 99.71C245.119 100.52 248.899 102.05 251.599 104.75C253.669 107.18 254.749 110.24 254.749 114.02C254.749 118.34 252.769 122.12 248.899 125.27C245.119 128.15 240.529 129.68 234.949 129.68C233.419 129.68 232.069 129.5 230.899 129.32C227.299 128.6 224.419 132.29 224.419 133.64C224.419 135.62 226.579 137.33 232.609 137.33H240.709ZM228.649 104.75C227.119 107.45 226.309 110.69 226.309 114.47C226.309 118.52 227.119 121.67 228.829 124.1C230.449 126.62 232.609 127.88 235.219 127.88C237.649 127.88 239.719 126.53 241.339 123.92C243.139 121.31 244.039 118.07 244.039 114.02C244.039 108.8 242.779 104.93 240.439 102.41C239.089 101.06 237.379 100.43 235.219 100.34C232.339 100.34 230.179 101.78 228.649 104.75ZM240.799 160.73C248.719 160.73 251.959 158.12 251.959 155.06C251.959 150.65 245.479 145.52 236.479 145.52H232.339C228.919 145.52 226.939 147.95 226.939 150.92C226.939 155.33 231.079 160.73 240.799 160.73ZM77.8607 191.66C81.9107 199.76 92.6207 219.38 101.711 219.56V221H95.2307C90.0107 221 83.6207 218.66 80.4707 213.44C79.9307 212.63 75.4307 205.16 71.2007 198.23L65.7107 203.45V210.29C65.7107 210.56 65.8007 210.74 65.8007 211.01C65.8007 211.91 66.0707 214.25 66.1607 214.25C66.1607 214.43 66.1607 214.52 66.2507 214.61C66.9707 217.67 68.8607 219.29 71.7407 219.47C71.8307 219.56 71.8307 221 71.8307 221C71.7407 221 62.1107 217.85 49.2407 221V219.47C49.8707 219.47 50.4107 219.38 50.9507 219.2C51.0407 219.11 51.1307 219.11 51.2207 219.11C51.7607 218.84 52.3007 218.57 52.7507 218.21C54.8207 216.41 55.1807 213.17 55.1807 210.65L55.0907 166.19C55.0907 161.24 55.9007 158.72 49.3307 158.72V158.18C50.0507 157.73 50.7707 157.37 51.5807 157.01C52.9307 156.38 54.3707 155.75 55.8107 155.39C58.7807 154.58 62.5607 154.31 64.3607 157.28C65.8907 159.71 65.6207 162.86 65.6207 165.47L65.7107 200.66L81.1007 185.54C83.4407 183.2 84.3407 181.49 83.9807 180.41C83.5307 179.33 82.3607 178.79 80.3807 178.88V177.44C80.3807 177.44 89.5607 178.97 99.7307 177.44H99.8207V178.88C93.5207 178.88 88.3907 181.04 84.2507 185.36L78.9407 190.67L77.8607 191.66ZM118.715 210.74C118.805 216.41 120.785 219.38 124.745 219.56V221.09C124.745 221.09 115.115 218.03 102.245 221.09V219.56C102.875 219.56 103.325 219.47 103.865 219.29C103.955 219.29 104.135 219.2 104.225 219.2C104.765 218.93 105.305 218.66 105.755 218.3C105.755 218.3 105.755 218.21 105.845 218.21C106.745 217.4 107.375 216.41 107.735 214.88C107.735 214.79 107.825 214.61 107.825 214.52C108.095 213.44 108.185 212.18 108.185 210.74L108.365 187.97C108.365 183.02 109.085 180.5 102.515 180.5V179.96C102.515 179.96 118.715 170.24 118.715 183.74C118.805 183.56 118.715 210.74 118.715 210.74ZM113.495 169.97C110.165 169.97 107.555 167.36 107.555 164.03C107.555 160.79 110.165 158.09 113.495 158.09C116.735 158.09 119.435 160.79 119.435 164.03C119.435 167.36 116.735 169.97 113.495 169.97ZM169.012 210.65C169.102 216.32 171.082 219.2 175.042 219.47V221C175.042 221 165.412 217.85 152.542 221V219.47C153.172 219.38 153.712 219.38 154.252 219.2C154.342 219.11 154.432 219.11 154.522 219.02C155.152 218.84 155.602 218.57 156.052 218.12C157.042 217.31 157.672 216.23 158.032 214.79C158.032 214.61 158.122 214.43 158.122 214.34C158.392 213.26 158.482 212 158.482 210.65L158.752 189.95C158.752 187.25 157.942 185 156.412 183.11C154.792 181.22 152.722 180.23 150.112 180.23C147.772 180.23 145.792 181.22 144.172 183.2C142.552 185.09 141.742 187.34 141.742 189.95V210.29C141.742 210.56 141.832 210.74 141.832 210.92C141.832 212.18 141.922 213.26 142.192 214.25C142.192 214.34 142.192 214.43 142.282 214.52C143.002 217.58 144.892 219.29 147.772 219.47C147.862 219.47 147.862 220.91 147.862 220.91C147.772 221 138.142 217.85 125.272 221V219.47C125.902 219.38 126.442 219.29 126.982 219.11C127.072 219.11 127.162 219.02 127.252 219.02C127.792 218.84 128.332 218.48 128.782 218.12C129.772 217.31 130.402 216.14 130.762 214.61C130.762 214.52 130.852 214.43 130.852 214.34C131.122 213.26 131.212 212 131.212 210.65L131.302 187.88C131.302 182.93 132.112 180.41 125.542 180.41V179.87C125.542 179.87 134.722 174.38 139.312 177.53C141.112 178.7 141.652 181.22 141.742 183.29C145.162 179.42 149.392 176.63 154.522 176.63C158.932 176.45 162.532 177.71 165.142 180.32C167.662 182.84 168.922 186.53 168.922 191.3L169.012 210.65ZM204.16 191.66C208.21 199.76 218.92 219.38 228.01 219.56V221H221.53C216.31 221 209.92 218.66 206.77 213.44C206.23 212.63 201.73 205.16 197.5 198.23L192.01 203.45V210.29C192.01 210.56 192.1 210.74 192.1 211.01C192.1 211.91 192.37 214.25 192.46 214.25C192.46 214.43 192.46 214.52 192.55 214.61C193.27 217.67 195.16 219.29 198.04 219.47C198.13 219.56 198.13 221 198.13 221C198.04 221 188.41 217.85 175.54 221V219.47C176.17 219.47 176.71 219.38 177.25 219.2C177.34 219.11 177.43 219.11 177.52 219.11C178.06 218.84 178.6 218.57 179.05 218.21C181.12 216.41 181.48 213.17 181.48 210.65L181.39 166.19C181.39 161.24 182.2 158.72 175.63 158.72V158.18C176.35 157.73 177.07 157.37 177.88 157.01C179.23 156.38 180.67 155.75 182.11 155.39C185.08 154.58 188.86 154.31 190.66 157.28C192.19 159.71 191.92 162.86 191.92 165.47L192.01 200.66L207.4 185.54C209.74 183.2 210.64 181.49 210.28 180.41C209.83 179.33 208.66 178.79 206.68 178.88V177.44C206.68 177.44 215.86 178.97 226.03 177.44H226.12V178.88C219.82 178.88 214.69 181.04 210.55 185.36L205.24 190.67L204.16 191.66Z" fill="#E3E3E3"/>
<path d="M218.549 91.9C219.389 93.174 219.879 93.734 221.181 93.762V93.986H219.221C218.409 93.986 217.667 93.524 217.289 92.81C217.149 92.558 216.981 92.25 216.757 91.9L215.553 89.912H215.539H213.873V90.85H213.859V92.488C213.859 93.328 214.265 93.734 215.077 93.72V93.986C215.077 93.986 213.271 93.58 210.933 93.986V93.72C211.731 93.748 212.137 93.342 212.137 92.488V92.432V85.796C212.137 85.74 212.137 85.712 212.137 85.712C212.137 84.872 211.731 84.466 210.933 84.48V84.214C211.353 84.298 211.773 84.34 212.207 84.368C213.495 84.438 214.783 84.256 216.085 84.256C217.275 84.256 218.087 84.522 218.647 85.012C218.661 85.026 218.661 85.026 218.675 85.04C219.263 85.502 219.795 86.188 219.795 87.07C219.795 88.932 218.255 89.8 215.917 89.898C216.127 90.136 216.757 90.948 217.625 90.318L218.549 91.9ZM215.259 89.632C217.177 89.632 218.255 88.918 218.255 87.112C218.255 85.796 217.779 84.928 216.603 84.648C216.561 84.648 216.561 84.648 216.491 84.62C216.295 84.578 216.085 84.536 215.847 84.536H213.873V86.272V89.632H215.259Z" fill="#58BE48"/>
<path d="M215.5 80.75C220.957 80.75 225.25 84.7364 225.25 89.5C225.25 94.2636 220.957 98.25 215.5 98.25C210.043 98.25 205.75 94.2636 205.75 89.5C205.75 84.7364 210.043 80.75 215.5 80.75Z" stroke="#58BE48" stroke-width="1.5"/>
</svg>
